<?xml version="1.0" encoding="utf-8"?>
<!-- Generator: Adobe Illustrator 23.1.0, SVG Export Plug-In . SVG Version: 6.00 Build 0)  -->
<svg version="1.1" id="Layer_1" xmlns="http://www.w3.org/2000/svg" xmlns:xlink="http://www.w3.org/1999/xlink" x="0px" y="0px"
	 viewBox="0 0 25 25" style="enable-background:new 0 0 25 25;" xml:space="preserve">
<style type="text/css">
	.st0{fill:none;stroke:#000000;stroke-width:1.5;stroke-miterlimit:10;}
</style>
<path class="st0" d="M1.26,19.27v2.8c0,0,0.97,1.77,2.51,1.88h16.88c0,0,3.19-0.4,3.14-2v-2.68H1.26z"/>
<path class="st0" d="M1.34,10.37h22.32c0,0,2.4-9.47-11.16-9.32S1.34,10.37,1.34,10.37z"/>
<path class="st0" d="M1.05,14.2c0,0,2.7,1.86,4.4,0s3.51,1.16,3.51,1.16s0.97,1,3.05-1.39c0,0,0.99-0.71,2.49,1.39
	c0,0,1.83,0.77,3.05-1.24c0,0,0.89-0.88,2.88,1.45c0,0,1.83,0.57,3.51-1.67"/>
<ellipse cx="6.57" cy="7.55" rx="0.56" ry="0.87"/>
<ellipse cx="9.91" cy="5.24" rx="0.56" ry="0.87"/>
<ellipse cx="13.06" cy="7.55" rx="0.56" ry="0.87"/>
<ellipse cx="15.51" cy="5.24" rx="0.56" ry="0.87"/>
<ellipse cx="18.83" cy="7.55" rx="0.56" ry="0.87"/>
</svg>
